<?xml version="1.0" standalone="no"?>
<!DOCTYPE svg PUBLIC "-//W3C//DTD SVG 20010904//EN"
 "http://www.w3.org/TR/2001/REC-SVG-20010904/DTD/svg10.dtd">
<svg version="1.0" xmlns="http://www.w3.org/2000/svg"
 width="430.000000pt" height="430.000000pt" viewBox="0 0 430.000000 430.000000"
 preserveAspectRatio="xMidYMid meet">
<metadata>
Created by potrace 1.14, written by Peter Selinger 2001-2017
</metadata>
<g transform="translate(0.000000,430.000000) scale(0.100000,-0.100000)"
fill="#000000" stroke="none">
<path d="M1944 4281 c-2 -3 -26 -6 -52 -7 -47 -3 -223 -38 -251 -50 -9 -4 -23
-8 -31 -10 -8 -2 -23 -7 -35 -13 -16 -8 -86 -32 -105 -36 -15 -4 -66 -31 -71
-38 -3 -5 -9 -8 -13 -8 -3 0 -31 -10 -61 -24 -31 -13 -58 -23 -61 -22 -3 1
-10 -6 -15 -15 -6 -10 -17 -18 -24 -18 -8 0 -15 -3 -15 -8 0 -4 -23 -18 -51
-32 -28 -13 -56 -32 -63 -42 -6 -10 -15 -18 -20 -18 -5 0 -16 -7 -25 -15 -9
-8 -43 -38 -75 -67 -84 -74 -206 -201 -206 -214 0 -6 -11 -20 -25 -30 -14 -10
-25 -24 -25 -31 0 -6 -3 -13 -7 -15 -10 -4 -93 -125 -93 -134 0 -10 -52 -87
-65 -96 -5 -4 -7 -8 -3 -8 4 0 -9 -32 -28 -70 -20 -39 -37 -82 -38 -95 0 -14
-3 -25 -6 -25 -11 0 -45 -95 -65 -181 -2 -9 -8 -34 -14 -55 -6 -22 -11 -53
-11 -70 0 -17 -3 -34 -7 -38 -4 -4 -9 -22 -11 -39 -1 -18 -5 -59 -9 -92 -3
-33 -7 -203 -8 -377 -2 -174 -5 -320 -7 -325 -5 -9 -1 -141 7 -268 9 -137 32
-294 45 -310 6 -7 10 -22 9 -32 -3 -18 21 -104 31 -113 6 -6 11 -26 13 -52 1
-10 4 -18 7 -18 5 0 30 -58 35 -80 2 -9 27 -64 35 -80 5 -8 21 -40 37 -70 15
-30 32 -59 36 -65 7 -9 26 -37 59 -90 7 -11 19 -24 26 -28 6 -4 12 -14 12 -22
0 -8 6 -18 13 -22 7 -4 30 -31 51 -60 22 -29 45 -54 53 -57 7 -3 13 -12 13
-20 0 -8 4 -16 9 -18 5 -2 45 -36 89 -76 44 -40 93 -83 109 -95 15 -12 37 -30
47 -39 11 -10 28 -20 38 -24 10 -3 18 -10 18 -15 0 -5 7 -9 15 -9 8 0 15 -4
15 -9 0 -5 8 -11 18 -13 30 -8 37 -11 49 -22 28 -25 40 -32 83 -51 25 -11 47
-22 50 -26 4 -5 96 -42 110 -45 6 -1 59 -23 81 -34 37 -19 207 -60 259 -64 14
-1 30 -5 36 -8 20 -13 124 -20 294 -20 185 1 249 4 267 15 7 4 32 10 55 12 78
7 128 17 123 25 -2 4 6 7 18 6 12 -1 33 4 47 11 14 7 32 13 41 13 8 0 20 5 27
12 7 7 12 8 12 4 0 -5 7 -3 15 4 9 7 18 10 22 7 3 -4 11 -3 17 1 6 5 34 17 61
27 28 10 52 21 55 25 3 3 34 21 70 39 110 54 131 67 124 74 -4 4 3 7 15 7 12
0 24 6 27 14 3 8 19 20 35 26 17 7 53 35 82 61 29 27 56 49 60 49 7 0 157 149
187 186 8 11 34 42 58 70 23 27 42 53 42 57 0 4 10 18 23 33 30 35 120 187
122 206 0 4 6 13 13 19 6 7 12 16 12 20 0 4 12 33 27 65 15 33 28 62 29 67 1
4 3 9 4 12 1 3 3 8 4 13 1 4 10 32 21 62 11 30 19 62 20 70 0 8 3 20 7 25 11
18 36 157 41 236 2 25 7 50 10 56 4 6 6 136 6 289 0 154 0 313 1 354 5 200 4
362 -1 366 -3 2 -9 41 -13 87 -4 45 -13 106 -20 134 -8 29 -11 54 -8 57 3 3 1
6 -4 6 -6 0 -16 30 -23 68 -8 37 -19 76 -24 87 -6 11 -12 22 -13 25 0 3 -3 12
-7 20 -3 8 -13 38 -23 65 -10 28 -21 52 -24 55 -11 10 -40 60 -35 60 3 0 0 10
-6 23 -12 21 -126 202 -141 222 -76 100 -115 145 -125 145 -7 0 -13 8 -13 18
0 15 -71 92 -86 92 -3 0 -31 25 -60 55 -30 30 -58 55 -63 55 -5 0 -30 17 -56
39 -25 21 -59 45 -73 52 -15 8 -38 21 -52 30 -52 33 -80 49 -83 47 -2 -2 -11
3 -20 11 -10 7 -17 11 -17 7 0 -3 -8 1 -17 9 -10 8 -21 14 -24 13 -3 -2 -13 3
-22 11 -10 7 -17 10 -17 6 0 -4 -7 -2 -15 5 -8 6 -18 9 -24 6 -5 -3 -11 -3
-13 1 -4 11 -92 53 -110 53 -8 0 -18 3 -22 7 -3 4 -14 8 -24 9 -30 5 -65 13
-127 29 -33 8 -112 18 -175 21 -166 7 -421 10 -426 5z"/>
</g>
</svg>
